<?xml version="1.0" standalone="no"?>
<!DOCTYPE svg PUBLIC "-//W3C//DTD SVG 20010904//EN"
 "http://www.w3.org/TR/2001/REC-SVG-20010904/DTD/svg10.dtd">
<svg version="1.0" xmlns="http://www.w3.org/2000/svg"
 width="512.000000pt" height="512.000000pt" viewBox="0 0 512.000000 512.000000"
 preserveAspectRatio="xMidYMid meet">
<metadata>
Created by potrace 1.14, written by Peter Selinger 2001-2017
</metadata>
<g transform="translate(0.000000,512.000000) scale(0.100000,-0.100000)"
fill="#000000" stroke="none">
<path d="M3548 4934 c-3 -3 -505 -7 -1114 -8 -704 -2 -1140 -7 -1194 -14 -47
-6 -137 -16 -200 -22 -224 -23 -342 -69 -430 -168 -70 -79 -90 -126 -90 -216
0 -82 9 -109 59 -182 74 -107 198 -175 365 -200 l39 -5 -7 -47 c-4 -26 -11
-72 -17 -102 -5 -30 -12 -197 -15 -371 -7 -337 -9 -318 41 -354 13 -9 16 -17
10 -22 -12 -9 -37 -66 -56 -128 -19 -60 -17 -279 4 -337 26 -74 57 -134 78
-154 15 -14 19 -31 19 -88 0 -86 50 -291 80 -331 4 -5 22 -37 40 -70 81 -149
210 -273 397 -385 40 -23 70 -46 68 -51 -3 -4 -24 -10 -48 -14 -23 -4 -55 -11
-72 -16 -16 -5 -68 -21 -115 -35 -47 -14 -103 -34 -125 -44 -22 -9 -50 -21
-63 -24 -50 -16 -223 -107 -307 -163 -341 -225 -541 -507 -635 -893 -32 -134
-39 -242 -17 -270 27 -35 62 -50 115 -50 85 0 142 54 142 134 0 36 22 152 41
221 65 229 188 427 384 618 85 83 259 215 375 284 184 110 429 219 458 204
102 -51 291 -103 522 -143 116 -20 558 -17 685 5 87 15 237 50 330 77 17 5 48
15 71 21 38 11 44 10 75 -13 19 -13 61 -32 94 -42 180 -52 437 -179 585 -289
337 -250 556 -579 645 -972 21 -92 29 -105 60 -105 37 0 49 53 49 225 0 193
-21 294 -100 463 -109 235 -298 439 -555 600 -146 92 -349 191 -489 239 -25 8
-48 18 -53 22 -4 4 35 35 88 69 94 62 235 190 291 267 96 131 162 276 185 405
11 59 10 71 -8 110 l-19 45 21 31 c35 52 51 183 36 307 -7 56 -16 111 -21 122
-34 80 -48 102 -77 132 -29 28 -32 36 -21 47 12 11 35 99 69 256 22 105 32
206 36 381 l5 187 91 4 c76 4 104 10 159 35 74 34 161 109 183 157 66 147 35
282 -99 424 -94 99 -226 171 -391 211 -27 7 -169 17 -315 21 -332 11 -335 11
-342 4z m-1628 -185 c72 -8 426 -13 1115 -14 1059 -2 1049 -1 1175 -46 66 -24
113 -54 162 -103 43 -43 88 -129 88 -168 0 -33 -25 -87 -49 -106 -20 -15 -139
-72 -152 -72 -5 0 -9 14 -9 30 0 23 -7 35 -32 50 -43 26 -159 27 -203 1 l-30
-18 -3 -224 c-5 -310 11 -475 66 -702 l26 -108 -35 -29 c-47 -38 -63 -90 -55
-172 16 -158 18 -288 6 -303 -11 -13 -145 -15 -1104 -15 -658 0 -1129 -4
-1186 -10 -151 -16 -475 -17 -494 -1 -30 25 -48 116 -48 241 0 137 13 185 51
195 62 16 371 26 996 31 369 3 686 9 705 13 41 8 52 35 18 45 -72 22 -983 66
-1410 69 l-308 2 0 181 c0 287 -24 490 -90 767 -9 38 -17 48 -37 53 -40 10
-55 -7 -72 -78 -9 -37 -19 -69 -23 -73 -11 -11 -138 34 -190 67 -93 59 -138
135 -138 231 0 52 5 71 29 109 62 98 143 136 319 149 70 5 134 11 142 13 42 9
677 5 770 -5z m-465 -2202 c143 1 771 5 1396 8 l1137 6 -19 -73 c-29 -110 -39
-138 -71 -202 -130 -261 -474 -486 -873 -572 -266 -57 -599 -59 -871 -5 -136
27 -289 74 -392 122 -35 16 -65 29 -67 29 -1 0 -34 18 -71 40 -173 101 -315
243 -401 400 -44 82 -89 218 -84 253 0 4 13 4 29 0 15 -5 144 -7 287 -6z"/>
<path d="M1710 1119 c-204 -15 -261 -58 -321 -239 -21 -67 -24 -94 -25 -245
-2 -198 17 -364 47 -406 22 -32 76 -59 117 -59 40 0 93 38 115 83 17 35 18 45
6 125 -7 48 -13 161 -13 252 1 155 2 169 26 225 l26 60 74 2 c40 1 127 7 193
12 66 6 338 17 605 26 648 20 1027 36 1070 44 39 8 53 36 22 45 -11 4 -75 11
-143 16 -68 5 -209 17 -314 25 -104 9 -248 20 -320 26 -174 14 -1008 19 -1165
8z"/>
<path d="M2043 636 c-76 -37 -92 -51 -74 -69 14 -14 14 -62 0 -89 -10 -18 -8
-25 12 -41 70 -57 164 -85 244 -73 61 10 128 70 123 113 -3 24 -9 29 -46 37
-41 9 -42 10 -36 41 8 42 -17 81 -64 100 -51 22 -80 19 -159 -19z m107 -106
c0 -5 -12 -10 -27 -10 -22 0 -25 2 -13 10 20 13 40 13 40 0z"/>
<path d="M3250 661 c-34 -11 -127 -59 -134 -69 -3 -5 2 -21 10 -37 13 -25 13
-32 0 -59 -13 -28 -13 -33 2 -49 9 -11 44 -33 77 -50 104 -53 207 -40 269 34
37 44 31 71 -16 83 -35 9 -38 12 -38 46 0 78 -83 127 -170 101z m55 -131 c-3
-5 -15 -10 -26 -10 -11 0 -17 5 -14 10 3 6 15 10 26 10 11 0 17 -4 14 -10z"/>
</g>
</svg>
